<svg width="127" height="127" viewBox="0 0 127 127" fill="none" xmlns="http://www.w3.org/2000/svg">
<path d="M0 26C0 11.6406 11.6406 0 26 0H101C115.359 0 127 11.6406 127 26V101C127 115.359 115.359 127 101 127H26C11.6406 127 0 115.359 0 101V26Z" fill="#E11138"/>
<path fill-rule="evenodd" clip-rule="evenodd" d="M99.5065 59.1689C105.263 59.1689 109.922 63.8282 109.922 69.5844C109.922 75.3407 105.263 80 99.5065 80C93.7503 80 89.091 75.3407 89.091 69.5844C89.091 63.8282 93.7503 59.1689 99.5065 59.1689ZM79.7335 50.85C79.1608 52.0828 78.7045 53.4612 78.3551 54.9561C77.5591 57.4507 78.7337 57.9749 81.4516 56.9557C83.4512 55.7617 85.4509 54.5581 87.4505 53.3641C88.4697 52.6458 88.9551 51.9372 88.7901 51.2383C88.46 49.8599 85.8003 49.1416 83.6163 48.7145C80.8401 48.1612 81.0342 48.0447 79.7335 50.85ZM26.1608 64.7407C28.8302 64.7407 31.0046 66.9053 31.0046 69.5844C31.0046 72.2539 28.8399 74.4282 26.1608 74.4282C23.4914 74.4282 21.317 72.2636 21.317 69.5844C21.317 66.9053 23.4817 64.7407 26.1608 64.7407ZM99.5065 64.7407C102.176 64.7407 104.35 66.9053 104.35 69.5844C104.35 72.2539 102.186 74.4282 99.5065 74.4282C96.8371 74.4282 94.6628 72.2636 94.6628 69.5844C94.6628 66.9053 96.8274 64.7407 99.5065 64.7407ZM47.7879 58.1302C50.4767 55.2473 53.5829 53.3738 57.1745 51.5683C65.0372 47.6079 69.8518 48.0932 78.1998 48.0932L75.3945 55.3735C74.2199 56.9266 72.8901 58.0235 70.871 58.1302H47.7879ZM26.1608 59.1689C31.917 59.1689 36.5764 63.8282 36.5764 69.5844C36.5764 75.3407 31.917 80 26.1608 80C20.4046 80 15.7452 75.3407 15.7452 69.5844C15.7452 63.8282 20.4046 59.1689 26.1608 59.1689ZM42.6238 55.9947C46.0406 53.8689 49.7584 51.9663 53.8742 50.3453C66.4058 45.4044 75.9866 44.5211 89.1298 48.5009C93.0903 50.0055 97.0507 51.5101 101.011 52.442C104.923 53.3738 121.862 54.2669 122.279 57.111L118.095 62.1101C119.619 63.4302 120.862 65.0513 121.318 67.5848C121.192 69.1476 120.765 70.4581 120.027 71.5064C118.775 73.3022 115.106 75.1562 113.125 74.0982C112.494 73.7584 112.135 73.0789 112.145 71.9238C112.203 48.7242 84.1987 51.3645 86.3051 74.6612H37.4403C46.4872 51.3257 7.89231 51.2383 14.7454 73.8555C12.3381 76.457 6.65952 72.5354 3 64.1971C3.99982 63.207 5.0967 62.2654 6.31978 61.3918C6.26154 61.3432 6.37802 61.5762 6.17417 61.2267C5.97033 60.8773 6.66923 59.4115 8.10586 58.567C15.6385 54.1504 33.8002 54.2669 42.6238 55.9947Z" fill="black"/>
</svg>
