<svg width="175" height="44" viewBox="0 0 175 44" fill="none" xmlns="http://www.w3.org/2000/svg">
<path d="M6.79499 1.68291C6.9507 0.713168 7.78752 0 8.76969 0H172.595C173.846 0 174.79 1.13475 174.562 2.36435L167.151 42.3644C166.975 43.3123 166.148 44 165.184 44H2.34677C1.11569 44 0.176884 42.8984 0.372061 41.6829L6.79499 1.68291Z" fill="#E11138"/>
<path d="M40.8882 30L38.6461 19.4448H38.5454L36.3033 30H30.1818L26.126 12.6683H31.92L33.9101 22.4929H34.0109L35.9758 12.6683H41.4676L43.5585 22.4929H43.6592L45.5234 12.6683H51.0655L47.0097 30H40.8882ZM58.916 16.3966C61.3512 16.3966 63.207 16.9676 64.4833 18.1096C65.7765 19.2516 66.4231 20.9982 66.4231 23.3494V24.206H56.4473C56.4473 25.1632 56.6572 25.8854 57.077 26.3724C57.5137 26.8595 58.1939 27.103 59.1176 27.103C59.9573 27.103 60.5703 26.9266 60.9565 26.574C61.3596 26.2213 61.5611 25.751 61.5611 25.1632H66.4231C66.4231 26.7755 65.8101 28.0351 64.5841 28.942C63.3581 29.8489 61.5695 30.3023 59.2183 30.3023C56.7496 30.3023 54.835 29.7313 53.4747 28.5893C52.1143 27.4305 51.4342 25.6839 51.4342 23.3494C51.4342 21.0654 52.0975 19.3356 53.4243 18.16C54.751 16.9844 56.5816 16.3966 58.916 16.3966ZM59.1176 19.5959C57.5389 19.5959 56.6572 20.3433 56.4725 21.838H61.3596C61.3596 21.1494 61.1581 20.6036 60.755 20.2005C60.3687 19.7974 59.8229 19.5959 59.1176 19.5959ZM73.6336 17.9333C74.5908 16.9088 75.8336 16.3966 77.3619 16.3966C79.1589 16.3966 80.5444 16.9844 81.5185 18.16C82.4926 19.3188 82.9796 21.0402 82.9796 23.3243C82.9796 25.6251 82.4926 27.3633 81.5185 28.5389C80.5444 29.7145 79.1589 30.3023 77.3619 30.3023C75.5145 30.3023 74.1038 29.5717 73.1297 28.1106L72.7015 30H68.6205V11.7362H73.6336V17.9333ZM75.8 20.0997C75.0611 20.0997 74.5069 20.3685 74.1374 20.9059C73.7679 21.4265 73.5832 22.1067 73.5832 22.9464V23.7777C73.5832 24.6174 73.7679 25.2976 74.1374 25.8182C74.5069 26.3388 75.0611 26.5991 75.8 26.5991C77.2443 26.5991 77.9665 25.7426 77.9665 24.0296V22.6945C77.9665 20.9647 77.2443 20.0997 75.8 20.0997Z" fill="#202020"/>
<path d="M94.0133 12.366C96.5828 12.366 98.6149 13.0125 100.11 14.3057C101.604 15.5821 102.352 17.4127 102.352 19.7974H97.0363C97.0363 18.7898 96.7676 17.9921 96.2301 17.4043C95.7095 16.8165 94.9622 16.5226 93.9881 16.5226C92.8629 16.5226 92.0316 16.8752 91.4941 17.5806C90.9735 18.286 90.7132 19.2684 90.7132 20.528V22.1403C90.7132 23.383 90.9735 24.3655 91.4941 25.0877C92.0316 25.793 92.8461 26.1457 93.9377 26.1457C95.0125 26.1457 95.8271 25.8686 96.3813 25.3144C96.9355 24.7602 97.2126 23.9792 97.2126 22.9716H102.352C102.352 25.3396 101.621 27.1534 100.16 28.4129C98.7157 29.6725 96.6668 30.3023 94.0133 30.3023C91.0575 30.3023 88.8154 29.5466 87.2872 28.0351C85.7757 26.5236 85.0199 24.2899 85.0199 21.3341C85.0199 18.3783 85.7757 16.1447 87.2872 14.6332C88.8154 13.1217 91.0575 12.366 94.0133 12.366ZM111.58 16.3966C113.612 16.3966 115.266 16.7409 116.543 17.4294C117.819 18.1012 118.457 19.2012 118.457 20.7295V25.919C118.457 26.2045 118.524 26.4396 118.659 26.6243C118.793 26.8091 118.995 26.9014 119.263 26.9014H120.17V29.7985C120.12 29.8321 119.985 29.8908 119.767 29.9748C119.566 30.042 119.272 30.1092 118.885 30.1763C118.499 30.2603 118.054 30.3023 117.55 30.3023C116.576 30.3023 115.77 30.1595 115.132 29.874C114.51 29.5717 114.082 29.1603 113.847 28.6397C113.209 29.1435 112.495 29.5466 111.706 29.8489C110.916 30.1511 109.993 30.3023 108.935 30.3023C105.811 30.3023 104.249 29.0595 104.249 26.574C104.249 25.2808 104.593 24.2983 105.282 23.6266C105.987 22.938 106.995 22.4677 108.305 22.2158C109.615 21.9639 111.328 21.838 113.444 21.838V21.183C113.444 20.6624 113.259 20.2677 112.89 19.999C112.537 19.7303 112.075 19.5959 111.504 19.5959C110.984 19.5959 110.53 19.6883 110.144 19.873C109.774 20.0578 109.59 20.3517 109.59 20.7547V20.8555H104.652C104.635 20.7715 104.627 20.654 104.627 20.5028C104.627 19.2432 105.223 18.244 106.416 17.505C107.625 16.7661 109.346 16.3966 111.58 16.3966ZM113.444 24.206C112.016 24.206 110.958 24.3655 110.27 24.6846C109.598 24.9869 109.262 25.3984 109.262 25.919C109.262 26.7587 109.833 27.1786 110.975 27.1786C111.63 27.1786 112.201 27.0022 112.688 26.6495C113.192 26.2969 113.444 25.8602 113.444 25.3396V24.206ZM129.894 16.3714C130.28 16.3714 130.624 16.4218 130.927 16.5226C131.229 16.6065 131.38 16.6569 131.38 16.6737V20.8807H129.768C128.727 20.8807 127.971 21.1494 127.501 21.6868C127.047 22.2242 126.82 23.022 126.82 24.08V30H121.807V16.6989H125.914L126.241 18.7142C126.543 17.9417 127.022 17.3623 127.677 16.976C128.332 16.5729 129.071 16.3714 129.894 16.3714ZM139.964 16.3966C141.744 16.3966 143.247 16.7493 144.473 17.4546C145.716 18.1432 146.337 19.218 146.337 20.6791H141.677C141.677 20.1921 141.458 19.8478 141.022 19.6463C140.719 19.4784 140.341 19.3944 139.888 19.3944C138.679 19.3944 138.074 19.6799 138.074 20.2509C138.074 20.57 138.284 20.7967 138.704 20.9311C139.124 21.0654 139.812 21.2082 140.77 21.3593C141.945 21.5273 142.928 21.7288 143.717 21.9639C144.506 22.1822 145.195 22.5853 145.783 23.1731C146.371 23.7441 146.664 24.5502 146.664 25.5915C146.664 27.2877 146.026 28.4969 144.75 29.2191C143.49 29.9412 141.836 30.3023 139.787 30.3023C138.612 30.3023 137.503 30.1428 136.462 29.8237C135.421 29.4878 134.573 28.9755 133.918 28.287C133.263 27.5984 132.935 26.7251 132.935 25.6671H137.596V25.7678C137.612 26.3388 137.847 26.7419 138.301 26.977C138.771 27.1953 139.267 27.3045 139.787 27.3045C141.181 27.3045 141.878 26.977 141.878 26.322C141.878 25.9862 141.66 25.7426 141.223 25.5915C140.786 25.4403 140.073 25.2808 139.082 25.1129C137.889 24.9113 136.907 24.693 136.134 24.4579C135.379 24.2228 134.715 23.8281 134.144 23.2739C133.573 22.7029 133.288 21.9135 133.288 20.9059C133.288 19.2768 133.901 18.118 135.127 17.4294C136.37 16.7409 137.982 16.3966 139.964 16.3966Z" fill="white"/>
</svg>
